<svg width="16" height="20" viewBox="0 0 16 20" fill="none" xmlns="http://www.w3.org/2000/svg">
<g clip-path="url(#clip0_222_275)">
<path d="M11.3334 10.0001C11.3338 10.1948 11.266 10.3835 11.1417 10.5334L6.97507 15.5334C6.83362 15.7036 6.63036 15.8106 6.41 15.8309C6.18965 15.8513 5.97025 15.7832 5.80007 15.6418C5.62989 15.5003 5.52287 15.2971 5.50255 15.0767C5.48223 14.8563 5.55028 14.6369 5.69173 14.4668L9.42507 10.0001L5.82507 5.53343C5.75585 5.44819 5.70415 5.35011 5.67296 5.24483C5.64177 5.13954 5.63169 5.02914 5.6433 4.91995C5.65492 4.81075 5.688 4.70494 5.74065 4.60857C5.79329 4.51221 5.86446 4.4272 5.95007 4.35843C6.03575 4.28211 6.13627 4.22431 6.24533 4.18865C6.3544 4.15299 6.46965 4.14024 6.58387 4.15119C6.69809 4.16215 6.80881 4.19657 6.90911 4.2523C7.00941 4.30804 7.09711 4.38389 7.16673 4.4751L11.1917 9.4751C11.2963 9.62933 11.3462 9.81418 11.3334 10.0001Z" fill="#6C786A"/>
</g>
<defs>
<clipPath id="clip0_222_275">
<rect width="20" height="16" fill="white" transform="translate(0 20) rotate(-90)"/>
</clipPath>
</defs>
</svg>
