<svg width="16" height="20" viewBox="0 0 16 20" fill="none" xmlns="http://www.w3.org/2000/svg">
<path d="M4.6666 10.0001C4.66622 9.80544 4.73403 9.61674 4.85827 9.46681L9.02493 4.46682C9.16638 4.29663 9.36964 4.18961 9.59 4.1693C9.81035 4.14898 10.0298 4.21703 10.1999 4.35848C10.3701 4.49993 10.4771 4.70319 10.4975 4.92355C10.5178 5.1439 10.4497 5.3633 10.3083 5.53348L6.57493 10.0001L10.1749 14.4668C10.2442 14.5521 10.2958 14.6501 10.327 14.7554C10.3582 14.8607 10.3683 14.9711 10.3567 15.0803C10.3451 15.1895 10.312 15.2953 10.2594 15.3917C10.2067 15.488 10.1355 15.573 10.0499 15.6418C9.96425 15.7181 9.86373 15.7759 9.75467 15.8116C9.6456 15.8473 9.53035 15.86 9.41613 15.8491C9.30191 15.8381 9.19119 15.8037 9.09089 15.7479C8.99059 15.6922 8.90289 15.6164 8.83327 15.5251L4.80827 10.5251C4.70367 10.3709 4.65379 10.1861 4.6666 10.0001Z" fill="#6C786A"/>
</svg>
