<svg width="50" height="44" viewBox="0 0 50 44" fill="none" xmlns="http://www.w3.org/2000/svg">
<path d="M38.8672 0.779251C38.5254 0.837845 22.2168 5.13472 21.0938 5.46675L20.166 5.73042L13.3301 5.78902L6.49414 5.83784L5.9375 6.10152C5.18555 6.45308 4.44336 7.16597 4.07227 7.88863C3.83789 8.35738 3.76953 8.63081 3.73047 9.27534L3.69141 10.0761L3.13477 10.2324C1.83594 10.5839 0.869141 11.3261 0.351563 12.3906C0.107422 12.8691 0.0585938 13.123 0.0195313 13.8554L-0.0195312 14.7343L1.81641 21.6679L3.66211 28.5917L3.71094 32.1074L3.75977 35.623L4.0332 36.1601C4.38477 36.8339 4.98047 37.4589 5.63477 37.8398C6.09375 38.0937 6.15234 38.1816 6.2793 38.6308C6.35742 38.914 6.54297 39.5585 6.68945 40.0664C6.97266 41.0917 7.33399 41.7265 7.92969 42.2734C8.67188 42.9374 10.0098 43.3769 10.9277 43.2402C11.1719 43.2109 15.4883 42.0976 20.5078 40.7695L29.6387 38.3574L36.5723 38.3085L43.5059 38.2597L44.0625 37.996C44.8145 37.6445 45.5566 36.9316 45.9277 36.2089C46.1621 35.7402 46.2305 35.4667 46.2695 34.8222L46.3086 34.0214L46.8652 33.8652C48.1738 33.5136 49.0723 32.8203 49.6191 31.7558C49.8926 31.2187 49.9414 31.0039 49.9805 30.2421L50.0195 29.3632L48.1836 22.4296L46.3379 15.5058L46.2891 11.9902L46.2402 8.47456L45.9375 7.88863C45.5957 7.23433 44.8633 6.50191 44.2676 6.19917L43.877 5.99409L43.5156 4.64644C43.3203 3.90425 43.0664 3.11324 42.959 2.88863C42.2656 1.44331 40.4395 0.505814 38.8672 0.779251ZM39.9512 2.86909C40.4102 3.02534 40.8887 3.39644 41.0645 3.73824C41.1426 3.89449 41.3184 4.42183 41.4453 4.91011L41.6895 5.78902H39.5508C37.2363 5.78902 37.002 5.82808 36.7578 6.28706C36.543 6.71675 36.5918 7.11714 36.9043 7.4687L37.1875 7.79097L40.1563 7.8398L43.1348 7.88863L43.4961 8.17183C43.7012 8.31831 43.9453 8.58199 44.0527 8.75777C44.2285 9.05074 44.2383 9.43159 44.2383 22.0488C44.2383 34.666 44.2285 35.0468 44.0527 35.3398C43.9453 35.5156 43.7012 35.7792 43.4961 35.9257L43.1348 36.2089H41.2891H39.4531L34.1113 30.164C29.9902 25.5058 28.6914 24.0898 28.4668 24.0312C27.8711 23.875 27.6465 24.0605 25.7715 26.1699C24.1211 28.0351 23.9844 28.1621 23.8574 27.996C23.7793 27.8886 22.666 26.3066 21.377 24.4609C20.0879 22.625 18.9258 21.0527 18.7988 20.9648C18.5254 20.789 17.9883 20.7597 17.7051 20.9062C17.5977 20.9648 15.127 24.4218 12.2168 28.582C7.17774 35.7988 6.91406 36.1601 6.70899 36.0527C6.38672 35.8867 6.05469 35.5546 5.89844 35.2617C5.78125 35.0371 5.76172 32.9765 5.76172 22.0488C5.76172 12.664 5.79102 9.04097 5.86914 8.88472C6.01563 8.61128 6.43555 8.14253 6.68945 8.00581C6.83594 7.91792 9.82422 7.87886 18.0762 7.8398C28.9063 7.79097 29.2871 7.7812 29.4824 7.60542C29.7852 7.33199 29.9023 6.80464 29.7461 6.43355C29.5508 5.97456 29.3262 5.83784 28.6426 5.78902C28.0176 5.74019 28.1152 5.71089 33.6133 4.25581C36.6895 3.44527 39.2969 2.77144 39.4141 2.77144C39.5313 2.76167 39.7656 2.8105 39.9512 2.86909ZM3.70117 16.4531V20.6816L2.88086 17.6054C2.38281 15.7597 2.05078 14.3339 2.05078 14.0507C2.05078 13.3574 2.39258 12.8105 3.04688 12.4882C3.32031 12.3515 3.59375 12.2343 3.63281 12.2343C3.67188 12.2343 3.71094 14.1386 3.70117 16.4531ZM47.9492 30.0566C47.9492 30.8574 47.3828 31.541 46.5137 31.8144L46.2891 31.873L46.2988 27.6445V23.416L47.1191 26.4921C47.627 28.3867 47.9492 29.7539 47.9492 30.0566ZM20.459 26.7851L22.5684 29.8027L19.7168 33.0253L16.8652 36.2578H13.1738C11.1328 36.2578 9.47266 36.2382 9.47266 36.1992C9.47266 36.0722 18.2031 23.6699 18.2715 23.7187C18.3106 23.7382 19.2969 25.1152 20.459 26.7851ZM32.6563 31.6386L36.7188 36.2578H28.2129C23.5352 36.2578 19.7266 36.2187 19.7461 36.1796C19.7656 36.1406 21.6699 33.9628 23.9746 31.3457L28.1738 26.5996L28.3789 26.8144C28.4961 26.9316 30.4199 29.1093 32.6563 31.6386ZM21.5723 38.3476C21.5527 38.3671 19.0625 39.0312 16.0449 39.8222C10.6348 41.248 10.5469 41.2675 10.0977 41.1406C9.21875 40.8964 8.72071 40.1445 8.44727 38.6601L8.37891 38.3085H15C18.6328 38.3085 21.5918 38.3281 21.5723 38.3476Z" fill="#6C786A"/>
<path d="M32.7246 5.92578C32.4219 6.0918 32.2363 6.44336 32.2266 6.84375C32.2266 7.32227 32.7539 7.83984 33.252 7.83984C33.7305 7.83984 34.2773 7.32227 34.2773 6.87305C34.2773 6.03321 33.4473 5.52539 32.7246 5.92578Z" fill="#6C786A"/>
<path d="M33.3496 10.6132C31.2891 11.121 29.7852 12.7812 29.4922 14.8808C29.1113 17.5566 30.9375 20.1347 33.5742 20.6425C37.041 21.3066 40.1367 18.3671 39.6484 14.871C39.4433 13.3476 38.3691 11.7948 37.041 11.082C35.9766 10.5155 34.5019 10.33 33.3496 10.6132ZM35.8887 12.8398C37.168 13.5038 37.8613 14.832 37.5879 16.1405C37.5293 16.4335 37.4121 16.8046 37.334 16.9609C37.0898 17.4296 36.4062 18.0937 35.8887 18.3671C35.4687 18.5917 35.2832 18.6308 34.5703 18.6308C33.8574 18.6308 33.6719 18.5917 33.2519 18.3671C32.6465 18.0546 31.9824 17.3515 31.709 16.746C31.4062 16.0624 31.4258 15.0859 31.7578 14.3827C32.1387 13.5722 32.7832 12.9765 33.5937 12.6835C34.2383 12.4491 35.2637 12.5273 35.8887 12.8398Z" fill="#6C786A"/>
</svg>
