<svg width="47" height="45" viewBox="0 0 47 45" fill="none" xmlns="http://www.w3.org/2000/svg">
<path d="M45.2222 20.8056C45.7383 20.421 46.1213 19.8846 46.3172 19.2714C46.5131 18.6583 46.5122 17.9992 46.3146 17.3866C46.1171 16.774 45.7327 16.2385 45.2155 15.8554C44.6983 15.4722 44.0741 15.2605 43.4305 15.25L30.9305 14.7778C30.869 14.7736 30.8101 14.7516 30.7608 14.7147C30.7115 14.6777 30.674 14.6273 30.6527 14.5695L26.3333 2.90281C26.1162 2.30926 25.7221 1.79673 25.2041 1.43461C24.6861 1.0725 24.0694 0.878296 23.4374 0.878296C22.8055 0.878296 22.1887 1.0725 21.6708 1.43461C21.1528 1.79673 20.7586 2.30926 20.5416 2.90281L16.236 14.6111C16.2148 14.669 16.1772 14.7194 16.1279 14.7564C16.0787 14.7933 16.0197 14.8152 15.9583 14.8195L3.45827 15.2917C2.81467 15.3022 2.1905 15.5139 1.67327 15.897C1.15604 16.2802 0.771692 16.8156 0.574122 17.4282C0.376553 18.0409 0.375666 18.7 0.571587 19.3131C0.767508 19.9263 1.15041 20.4627 1.66661 20.8473L11.4722 28.5556C11.5212 28.5942 11.5579 28.6464 11.5777 28.7056C11.5974 28.7649 11.5994 28.8286 11.5833 28.8889L8.20827 40.8473C8.03338 41.4562 8.05033 42.1043 8.2568 42.7032C8.46327 43.3022 8.84925 43.823 9.36223 44.1949C9.87521 44.5667 10.4903 44.7715 11.1238 44.7814C11.7573 44.7912 12.3784 44.6057 12.9027 44.25L23.2638 37.3056C23.3149 37.2704 23.3754 37.2515 23.4374 37.2515C23.4995 37.2515 23.56 37.2704 23.611 37.3056L33.9722 44.25C34.4894 44.6179 35.1083 44.8155 35.743 44.8155C36.3777 44.8155 36.9966 44.6179 37.5138 44.25C38.0269 43.8817 38.4133 43.3634 38.6197 42.7665C38.8262 42.1696 38.8425 41.5233 38.6666 40.9167L35.2638 28.9167C35.2458 28.8565 35.2468 28.7921 35.2667 28.7325C35.2866 28.6728 35.3244 28.6207 35.3749 28.5834L45.2222 20.8056Z" fill="#4FAE3C"/>
</svg>
