<svg width="45" height="46" viewBox="0 0 45 46" fill="none" xmlns="http://www.w3.org/2000/svg">
<circle cx="22.5" cy="23" r="22.5" fill="#DCE7D1"/>
<g clip-path="url(#clip0_148_38)">
<path d="M29.8915 20.5357C29.8915 18.575 29.1126 16.6946 27.7261 15.3082C26.3397 13.9217 24.4593 13.1429 22.4986 13.1429C20.5379 13.1429 18.6575 13.9217 17.2711 15.3082C15.8846 16.6946 15.1057 18.575 15.1057 20.5357C15.1057 23.5684 17.5322 27.5211 22.4986 32.2559C27.465 27.5211 29.8915 23.5684 29.8915 20.5357ZM22.4986 34.5C16.4742 29.0244 13.4629 24.3685 13.4629 20.5357C13.4629 18.1393 14.4149 15.841 16.1094 14.1465C17.8039 12.452 20.1022 11.5 22.4986 11.5C24.895 11.5 27.1933 12.452 28.8878 14.1465C30.5823 15.841 31.5343 18.1393 31.5343 20.5357C31.5343 24.3685 28.523 29.0244 22.4986 34.5Z" fill="#343434"/>
<path d="M22.5003 23.3833C23.1103 23.3833 23.6953 23.141 24.1267 22.7097C24.558 22.2783 24.8003 21.6933 24.8003 21.0833C24.8003 20.4733 24.558 19.8883 24.1267 19.457C23.6953 19.0257 23.1103 18.7833 22.5003 18.7833C21.8903 18.7833 21.3053 19.0257 20.874 19.457C20.4426 19.8883 20.2003 20.4733 20.2003 21.0833C20.2003 21.6933 20.4426 22.2783 20.874 22.7097C21.3053 23.141 21.8903 23.3833 22.5003 23.3833ZM22.5003 24.9167C21.4837 24.9167 20.5086 24.5128 19.7897 23.7939C19.0709 23.075 18.667 22.1 18.667 21.0833C18.667 20.0667 19.0709 19.0916 19.7897 18.3728C20.5086 17.6539 21.4837 17.25 22.5003 17.25C23.517 17.25 24.492 17.6539 25.2109 18.3728C25.9298 19.0916 26.3337 20.0667 26.3337 21.0833C26.3337 22.1 25.9298 23.075 25.2109 23.7939C24.492 24.5128 23.517 24.9167 22.5003 24.9167Z" fill="#343434"/>
</g>
<defs>
<clipPath id="clip0_148_38">
<rect width="23" height="23" fill="white" transform="translate(11 11.5)"/>
</clipPath>
</defs>
</svg>
