<svg width="45" height="46" viewBox="0 0 45 46" fill="none" xmlns="http://www.w3.org/2000/svg">
<circle cx="22.5" cy="23" r="22.5" fill="#DCE7D1"/>
<path fill-rule="evenodd" clip-rule="evenodd" d="M32.083 14.375C33.1409 14.375 34 15.2329 34 16.292V29.7079C34 30.7659 33.1421 31.625 32.083 31.625H12.9171C11.8591 31.625 11 30.7671 11 29.7079V16.292C11 15.234 11.8579 14.375 12.9171 14.375H32.083ZM19.2432 24.5272L13.5967 30.107H31.2204L25.6349 24.5847L22.5 26.7548L19.2432 24.5272ZM32.436 19.8858L26.9206 23.6992L32.436 29.1456V19.8858ZM12.5651 19.956V28.9674L17.954 23.6417L12.5651 19.956ZM32.0645 15.8942H12.9527C12.8478 15.8892 12.7449 15.9246 12.6652 15.9931C12.6298 16.0248 12.6024 16.0645 12.5854 16.1089C12.5684 16.1533 12.5623 16.2011 12.5675 16.2484V18.1114L22.5 24.9044L32.4406 18.0446V16.3288C32.4417 16.1747 32.4061 16.0632 32.3348 15.9931C32.2994 15.9586 32.2571 15.932 32.2108 15.915C32.1644 15.8979 32.115 15.8908 32.0657 15.8942H32.0645Z" fill="#343434"/>
</svg>
