<svg width="45" height="46" viewBox="0 0 45 46" fill="none" xmlns="http://www.w3.org/2000/svg">
<circle cx="22.5" cy="23" r="22.5" fill="#DCE7D1"/>
<g clip-path="url(#clip0_148_54)">
<path d="M16.9208 11.5899C15.4788 11.9447 14.3513 13.1352 14.0728 14.5906C14.0189 14.8692 14.0099 16.2168 14.0099 23C14.0099 31.8361 13.9964 31.3779 14.2749 32.1012C14.6388 33.0356 15.4788 33.8801 16.4267 34.2485C17.1005 34.5135 16.8804 34.5045 22.6124 34.491L27.8683 34.4776L28.2501 34.3518C29.5214 33.925 30.4198 32.9996 30.8196 31.7104L30.923 31.3779L30.9364 23.1572C30.9454 15.7631 30.9409 14.9006 30.878 14.5772C30.5905 13.1486 29.472 11.9537 28.1153 11.6213C27.6841 11.5135 27.4146 11.5899 27.19 11.8863C27.0507 12.0705 27.0013 12.394 27.0776 12.632C27.154 12.8701 27.3517 13.0229 27.7515 13.1621C28.5691 13.4496 29.0991 14.0111 29.3058 14.8108C29.4091 15.2016 29.4091 30.8029 29.3058 31.1938C29.0991 31.9799 28.5151 32.6088 27.7694 32.8379C27.4819 32.9277 27.3562 32.9277 22.4776 32.9277C17.5991 32.9277 17.4733 32.9277 17.1858 32.8379C16.4446 32.6088 15.8517 31.9754 15.6495 31.1893C15.5462 30.8029 15.5462 15.1971 15.6495 14.8108C15.8517 14.0246 16.4446 13.3912 17.1858 13.1621C17.4464 13.0813 17.6036 13.0723 18.6683 13.0723H19.8632L20.2136 13.4047C20.4472 13.6293 20.6179 13.7551 20.7347 13.7865C20.9728 13.8539 24.0364 13.8539 24.2745 13.7865C24.4048 13.7506 24.5755 13.6158 24.9259 13.2834C25.5189 12.7084 25.5997 12.5871 25.5997 12.2592C25.5997 11.9672 25.4919 11.7695 25.2448 11.6033L25.0921 11.5L21.1794 11.5045C17.5003 11.5045 17.2442 11.5135 16.9208 11.5899Z" fill="#343434"/>
<path d="M21.2965 29.9674C20.7934 30.2189 20.7395 30.9826 21.2067 31.3195C21.3549 31.4229 21.3729 31.4229 22.5049 31.4229H23.6549L23.8211 31.2926C24.0457 31.1219 24.1311 30.9107 24.1086 30.5918C24.0862 30.2818 23.9514 30.0752 23.6954 29.9584C23.5336 29.8865 23.3899 29.873 22.5004 29.873C21.5616 29.873 21.4762 29.8775 21.2965 29.9674Z" fill="#343434"/>
</g>
<defs>
<clipPath id="clip0_148_54">
<rect width="23" height="23" fill="white" transform="translate(11 11.5)"/>
</clipPath>
</defs>
</svg>
