<svg width="15" height="11" viewBox="0 0 15 11" fill="none" xmlns="http://www.w3.org/2000/svg">
<path d="M9.0624 10.7997C9.12574 10.8632 9.20097 10.9136 9.2838 10.9479C9.36663 10.9823 9.45543 11 9.54511 11C9.63479 11 9.72359 10.9823 9.80642 10.9479C9.88925 10.9136 9.96449 10.8632 10.0278 10.7997L14.8004 6.02714C14.9282 5.89929 15 5.7259 15 5.54511C15 5.36433 14.9282 5.19094 14.8004 5.06308L10.0278 0.290528C9.96452 0.227137 9.88936 0.176835 9.80662 0.142494C9.72388 0.108153 9.63518 0.090446 9.5456 0.0903831C9.45601 0.0903201 9.36729 0.1079 9.2845 0.142124C9.20171 0.176348 9.12648 0.226543 9.06309 0.289844C8.9997 0.353145 8.94939 0.428312 8.91505 0.511053C8.88071 0.593793 8.863 0.68249 8.86294 0.772074C8.86288 0.861659 8.88046 0.950378 8.91468 1.03317C8.94891 1.11596 8.9991 1.19119 9.0624 1.25458L12.6718 4.86264L0.681795 4.86264C0.500971 4.86264 0.327554 4.93447 0.199693 5.06233C0.0718322 5.19019 4.92749e-07 5.36361 4.76941e-07 5.54443C4.61133e-07 5.72525 0.0718321 5.89867 0.199693 6.02653C0.327554 6.15439 0.500971 6.22622 0.681795 6.22622L12.6718 6.22622L9.0624 9.83564C8.93459 9.9635 8.86278 10.1369 8.86278 10.3177C8.86278 10.4985 8.93459 10.6718 9.0624 10.7997Z" fill="#6C786A"/>
</svg>
