<svg width="23" height="15" viewBox="0 0 23 15" fill="none" xmlns="http://www.w3.org/2000/svg">
<path fill-rule="evenodd" clip-rule="evenodd" d="M1.5 0C1.27898 0 1.06702 0.0877975 0.910742 0.244078C0.754461 0.400358 0.666664 0.61232 0.666664 0.833333C0.666664 1.05435 0.754461 1.26631 0.910742 1.42259C1.06702 1.57887 1.27898 1.66667 1.5 1.66667H21.5C21.721 1.66667 21.933 1.57887 22.0893 1.42259C22.2455 1.26631 22.3333 1.05435 22.3333 0.833333C22.3333 0.61232 22.2455 0.400358 22.0893 0.244078C21.933 0.0877975 21.721 0 21.5 0H1.5ZM0.666664 7.5C0.666664 7.27899 0.754461 7.06702 0.910742 6.91074C1.06702 6.75446 1.27898 6.66667 1.5 6.66667H21.5C21.721 6.66667 21.933 6.75446 22.0893 6.91074C22.2455 7.06702 22.3333 7.27899 22.3333 7.5C22.3333 7.72101 22.2455 7.93297 22.0893 8.08926C21.933 8.24554 21.721 8.33333 21.5 8.33333H1.5C1.27898 8.33333 1.06702 8.24554 0.910742 8.08926C0.754461 7.93297 0.666664 7.72101 0.666664 7.5ZM0.666664 14.1667C0.666664 13.9457 0.754461 13.7337 0.910742 13.5774C1.06702 13.4211 1.27898 13.3333 1.5 13.3333H21.5C21.721 13.3333 21.933 13.4211 22.0893 13.5774C22.2455 13.7337 22.3333 13.9457 22.3333 14.1667C22.3333 14.3877 22.2455 14.5996 22.0893 14.7559C21.933 14.9122 21.721 15 21.5 15H1.5C1.27898 15 1.06702 14.9122 0.910742 14.7559C0.754461 14.5996 0.666664 14.3877 0.666664 14.1667Z" fill="#6C786A"/>
</svg>
