<svg width="36" height="160" viewBox="0 0 36 160" fill="none" xmlns="http://www.w3.org/2000/svg">
<path d="M0 15C0 6.71574 6.71573 1.52588e-05 15 1.52588e-05H36V160H15C6.71573 160 0 153.284 0 145V15Z" fill="#4FAE3C"/>
<path d="M18.9091 119.673C15.6527 119.673 13.679 121.622 13.679 124.256C13.679 126.901 15.6527 128.845 18.9091 128.845C22.1605 128.845 24.1392 126.901 24.1392 124.256C24.1392 121.622 22.1655 119.673 18.9091 119.673ZM18.9091 121.194C21.3899 121.194 22.7372 122.506 22.7372 124.256C22.7372 126.011 21.3899 127.319 18.9091 127.319C16.4283 127.319 15.081 126.011 15.081 124.256C15.081 122.506 16.4283 121.194 18.9091 121.194ZM17.6463 118.304L17.6463 115.804L24 115.804L24 114.352L17.6463 114.352L17.6463 111.861L16.3636 111.861L16.3636 118.304L17.6463 118.304ZM21.9815 110.741C23.3139 110.696 24.1541 109.449 24.1541 107.753C24.1541 106.013 23.2791 104.755 21.8771 104.755C20.8828 104.755 20.147 105.387 20.0874 106.272L20.0078 106.272C19.7791 105.471 19.2422 104.919 18.402 104.919C17.1491 104.919 16.2642 105.993 16.2642 107.694C16.2642 109.324 17.1342 110.522 18.4169 110.552L18.4169 109.051C17.8452 109.021 17.4474 108.429 17.4474 107.619C17.4474 106.819 17.8651 106.351 18.4865 106.351C19.0682 106.351 19.4957 106.769 19.4957 107.609L19.4957 108.852L20.6641 108.852L20.6641 107.609C20.6641 106.764 21.1314 106.222 21.8224 106.222C22.603 106.222 22.956 106.913 22.956 107.768C22.956 108.608 22.608 109.175 21.9815 109.22L21.9815 110.741ZM18.9886 101.764L16.3636 101.764L16.3636 103.22L24 103.22L24 99.8845C24 98.0152 22.9162 96.9711 21.4794 96.9711C20.0128 96.9711 18.9886 98.0152 18.9886 99.8845L18.9886 101.764ZM24 95.8873L24 94.4008L16.3636 94.4008L16.3636 95.8873L24 95.8873ZM20.2713 101.764L20.2713 99.8845C20.2713 99.0294 20.7884 98.4179 21.5241 98.4179C22.2202 98.4179 22.7173 99.0294 22.7173 99.8845L22.7173 101.764L20.2713 101.764ZM24 92.406L24 88.7568C24 87.0864 23.1548 86.107 21.9418 86.107C20.8082 86.107 20.1122 86.977 19.9929 87.9962C19.8139 87.0566 19.2969 86.4351 18.402 86.4351C17.1491 86.4351 16.3636 87.5189 16.3636 89.2391L16.3636 92.406L24 92.406ZM22.7571 91.009L20.6342 91.009L20.6342 88.7568C20.6342 88.021 21.0668 87.5786 21.7777 87.5786C22.3842 87.5786 22.7571 88.021 22.7571 88.7568L22.7571 91.009ZM19.5455 91.009L17.6214 91.009L17.6214 89.2391C17.6214 88.3939 17.9744 87.8818 18.5611 87.8818C19.1726 87.8818 19.5455 88.3889 19.5455 89.2242L19.5455 91.009ZM24.1541 77.5546C24.1541 75.4019 22.5781 73.9949 20.2166 73.9949C17.8402 73.9949 16.2642 75.4019 16.2642 77.5546C16.2642 79.7073 17.8402 81.1143 20.2166 81.1143C22.5781 81.1143 24.1541 79.7073 24.1541 77.5546ZM22.9062 77.5496C22.9062 78.9566 21.6783 79.6128 20.2116 79.6128C18.75 79.6128 17.5071 78.9566 17.5071 77.5496C17.5071 76.1526 18.75 75.4964 20.2116 75.4964C21.6783 75.4964 22.9062 76.1526 22.9062 77.5496ZM24.1541 65.414C24.1541 63.6093 23.0703 62.441 21.5838 62.2769L21.5838 63.7236C22.4091 63.9126 22.8963 64.5539 22.8963 65.404C22.8963 66.6618 21.8473 67.4722 20.1818 67.4722C18.5462 67.4722 17.517 66.6469 17.517 65.404C17.517 64.4594 18.1136 63.8827 18.8295 63.7236L18.8295 62.2769C17.2883 62.436 16.2642 63.6938 16.2642 65.4289C16.2642 67.5816 17.8849 68.9736 20.2166 68.9736C22.5185 68.9736 24.1541 67.6313 24.1541 65.414ZM24.169 58.4649C24.169 57.2021 23.5277 56.4912 22.956 56.2078L22.956 56.1482L24 56.1482L24 54.6965L18.929 54.6965C16.7067 54.6965 16.2642 56.4465 16.2642 57.6595C16.2642 59.0416 16.821 60.3144 18.2131 60.8115L18.5312 59.4145C17.9893 59.1958 17.4673 58.6389 17.4673 57.6396C17.4673 56.6801 17.9695 56.1879 18.8345 56.1879L18.8693 56.1879C19.4112 56.1879 19.4013 56.7448 19.5604 58.1169C19.7294 59.5637 20.1072 61.0452 21.8423 61.0452C23.3437 61.0452 24.169 59.9166 24.169 58.4649ZM22.9758 58.1418C22.9758 58.982 22.598 59.5885 21.8622 59.5885C21.0668 59.5885 20.7834 58.8825 20.669 58.0225C20.6044 57.5402 20.4751 56.3968 20.2614 56.183L21.2457 56.183C22.1506 56.183 22.9758 56.9039 22.9758 58.1418ZM21.9169 51.2599L16.3636 51.2599L16.3636 52.7165L24 52.7165L24 51.1008L18.4418 47.7499L24 47.7499L24 46.2932L16.3636 46.2932L16.3636 47.8941L21.9169 51.2599ZM13.7784 48.5305C14.2805 48.5305 14.723 48.8089 14.723 49.5049C14.723 50.2108 14.2756 50.4743 13.7784 50.4743L13.7784 51.6924C14.897 51.6924 15.6676 50.8422 15.6676 49.5049C15.6676 48.1576 14.897 47.3074 13.7784 47.3074L13.7784 48.5305ZM17.6463 45.2417L17.6463 42.741L24 42.741L24 41.2893L17.6463 41.2893L17.6463 38.7986L16.3636 38.7986L16.3636 45.2417L17.6463 45.2417ZM24.1541 34.2906C24.1541 32.6251 23.3338 31.4468 22.0909 31.1088L21.8374 32.5157C22.5582 32.7842 22.9261 33.4305 22.9261 34.2757C22.9261 35.5484 22.1008 36.4035 20.6293 36.4433L20.6293 31.0143L20.1023 31.0143C17.343 31.0143 16.2642 32.6649 16.2642 34.395C16.2642 36.5228 17.8849 37.9248 20.2315 37.9248C22.603 37.9248 24.1541 36.5427 24.1541 34.2906ZM19.5156 36.4383C18.4318 36.3786 17.4922 35.5931 17.4922 34.385C17.4922 33.2316 18.3473 32.4759 19.5156 32.471L19.5156 36.4383Z" fill="white"/>
</svg>
