<svg width="20" height="26" viewBox="0 0 20 26" fill="none" xmlns="http://www.w3.org/2000/svg">
<path d="M3.69309 0.10158C2.06301 0.502752 0.7884 1.84846 0.473556 3.49377C0.412619 3.80861 0.402462 5.33205 0.402462 13C0.402462 22.9887 0.387228 22.4707 0.702072 23.2883C1.1134 24.3446 2.06301 25.2992 3.13449 25.7156C3.89621 26.0153 3.64739 26.0051 10.1271 25.9899L16.0685 25.9746L16.5001 25.8324C17.9372 25.35 18.9529 24.3039 19.4048 22.8465L19.5216 22.4707L19.5368 13.1778C19.547 4.81916 19.5419 3.84416 19.4708 3.47853C19.1458 1.86369 17.8814 0.512911 16.3478 0.137129C15.8603 0.0152531 15.5556 0.101582 15.3017 0.436737C15.1443 0.644941 15.0884 1.01057 15.1747 1.27971C15.2611 1.54885 15.4845 1.7215 15.9365 1.87892C16.8607 2.20392 17.4599 2.83869 17.6935 3.7426C17.8103 4.18439 17.8103 21.8207 17.6935 22.2625C17.4599 23.1512 16.7997 23.8621 15.9568 24.1211C15.6318 24.2227 15.4896 24.2227 9.97473 24.2227C4.45989 24.2227 4.3177 24.2227 3.9927 24.1211C3.15481 23.8621 2.48449 23.1461 2.25598 22.2574C2.13918 21.8207 2.13918 4.17932 2.25598 3.7426C2.48449 2.85393 3.15481 2.13791 3.9927 1.87892C4.28723 1.78752 4.46496 1.77736 5.66848 1.77736H7.01926L7.41536 2.15314C7.67942 2.40705 7.87239 2.54924 8.00442 2.58479C8.27356 2.66096 11.7368 2.66096 12.006 2.58479C12.1532 2.54416 12.3462 2.39182 12.7423 2.01604C13.4126 1.36604 13.504 1.22893 13.504 0.858223C13.504 0.528145 13.3822 0.304707 13.1029 0.116816L12.9302 1.71661e-05L8.50715 0.00509644C4.34817 0.00509644 4.05871 0.0152531 3.69309 0.10158Z" fill="#343434"/>
<path d="M8.63917 20.8762C8.07042 21.1605 8.00948 22.0238 8.5376 22.4047C8.70518 22.5215 8.7255 22.5215 10.0052 22.5215H11.3052L11.4931 22.3742C11.747 22.1813 11.8435 21.9426 11.8181 21.582C11.7927 21.2316 11.6403 20.998 11.3509 20.866C11.1681 20.7848 11.0056 20.7695 10.0001 20.7695C8.93878 20.7695 8.84229 20.7746 8.63917 20.8762Z" fill="#343434"/>
</svg>
