<svg width="50" height="50" viewBox="0 0 50 50" fill="none" xmlns="http://www.w3.org/2000/svg">
<path d="M32.3554 25.5519H42.424" stroke="#A2A5A6" stroke-width="6.8028" stroke-miterlimit="22.9256"/>
<path fill-rule="evenodd" clip-rule="evenodd" d="M7.14056 26.6303L16.2384 26.606C17.0448 30.1105 18.1819 32.0398 21.3909 33.5891C25.4862 35.5664 30.0385 33.6928 32.387 29.837L33.2397 27.6211C33.3513 27.1261 33.2283 27.1568 33.4268 26.7491L37.9719 26.6053C38.7039 26.6072 39.446 26.6397 40.1618 26.6572C40.6285 26.6687 41.6898 26.6486 42.424 26.6259L42.3324 27.5081C41.8167 27.7831 39.4397 28.1437 38.7729 28.2211L38.2079 30.5148C38.6333 30.6898 40.6891 32.4328 40.9049 32.8852C40.5304 33.9384 39.6022 35.0079 39.2222 36.003C38.1354 36.0283 36.6939 35.1103 35.5707 34.9102C34.9571 35.4385 34.6584 35.9596 34.0209 36.3129C34.2464 37.366 35.1546 39.1322 35.1495 39.955C34.8209 40.268 32.4095 41.654 31.9663 41.7805C31.306 41.2527 30.1489 39.7513 29.5975 39.0328L27.3772 39.6882C27.0604 40.6412 27.0619 42.477 26.5803 43.2367C25.8974 43.3215 25.1891 43.2732 24.4989 43.2758C21.8408 43.2856 23.1646 43.1953 22.1767 39.6271L20.0972 39.0671C19.7745 39.3286 19.7203 39.3622 19.4575 39.7141L17.6961 41.7231C17.1028 41.6891 14.7723 40.2526 14.4065 39.931C14.5153 38.8463 15.2636 37.5175 15.5451 36.4868C15.2265 36.1048 14.3314 35.2335 13.9555 34.8778L10.5322 36.0472C10.1675 35.6465 8.75519 33.3025 8.66911 32.7507C8.80526 32.5484 10.428 31.1889 10.7906 30.9133C11.3316 30.5022 11.449 30.5475 11.215 29.7801C11.0669 29.294 10.9488 28.8028 10.8439 28.2612C7.35802 27.3526 7.24561 28.2996 7.14056 26.6303Z" fill="#343434"/>
<path d="M24.8479 17.6428C28.9997 17.6428 32.3655 21.1544 32.3655 25.4863C32.3655 29.818 28.9997 33.3297 24.8479 33.3297C20.6959 33.3297 17.3303 29.818 17.3303 25.4863C17.3303 21.1544 20.6959 17.6428 24.8479 17.6428V17.6428Z" stroke="#A2A5A6" stroke-width="6.8028" stroke-miterlimit="22.9256"/>
<path fill-rule="evenodd" clip-rule="evenodd" d="M32.957 22.3776C34.774 22.1396 37.4904 21.1615 38.8774 20.9856C41.1142 20.702 42.7349 22.174 42.8684 24.1773C42.656 24.3967 43.1883 24.3739 42.4986 24.3556L33.3945 24.3358L32.957 22.3776Z" fill="#4FAE3C"/>
<path fill-rule="evenodd" clip-rule="evenodd" d="M30.9539 19.1933C31.0413 18.6674 31.1778 18.6015 31.5026 18.3296L33.9248 16.1892C34.0234 15.8369 35.0485 14.9777 35.5174 14.707C38.3061 13.0966 40.8859 15.2688 40.8371 17.5237C40.7866 19.8554 38.9425 20.3388 37.7552 20.7157C36.8635 20.9988 33.5511 21.999 32.7988 21.9965L32.442 21.5439C32.3621 21.4154 32.3405 21.3484 32.2619 21.1927C31.6876 20.0544 31.2105 19.7591 30.9539 19.1933Z" fill="#4FAE3C"/>
<path fill-rule="evenodd" clip-rule="evenodd" d="M30.3367 18.5233C29.0876 17.5346 28.5667 17.4957 27.2935 16.8048C27.7758 15.9042 28.3005 12.3457 28.7739 11.1084C30.478 6.65479 37.7424 10.1445 34.6988 14.465C33.9816 15.4831 31.2929 17.9568 30.7476 18.7833L30.3367 18.5233Z" fill="#4FAE3C"/>
<path fill-rule="evenodd" clip-rule="evenodd" d="M26.3111 16.7241C24.7426 16.4458 24.2655 16.6584 22.8169 16.6536C22.8146 15.6321 21.5896 12.2501 21.42 10.9363C20.8091 6.207 28.8596 5.83587 28.228 11.0829C28.0792 12.3193 26.8845 15.772 26.7961 16.7582L26.3111 16.7241Z" fill="#4FAE3C"/>
<path fill-rule="evenodd" clip-rule="evenodd" d="M22.4808 16.9056C21.75 17.1223 21.2716 17.2849 20.628 17.6229C20.0188 17.9428 19.6833 18.2084 19.1136 18.5136C18.3917 18.1704 16.0041 15.5936 15.2048 14.8196C13.6023 13.2677 13.8513 10.8722 15.6617 9.72347C17.694 8.43403 20.042 9.51847 20.744 11.1449C21.1527 12.0915 22.3293 15.9603 22.4808 16.9056Z" fill="#4FAE3C"/>
<path fill-rule="evenodd" clip-rule="evenodd" d="M18.8699 18.8697C17.849 20.6677 16.7065 20.7227 16.2771 24.3455L8.1915 24.5273L7.22215 24.5237C7.17518 22.4454 8.75477 21.0022 10.8006 21.0683C12.4813 21.1227 14.7277 22.1437 16.5437 22.1583C15.5655 21.6563 11.7186 20.9866 10.7981 20.5432C6.39217 18.4214 10.6154 11.7309 14.9562 15.4003C15.7032 16.0319 16.2661 16.5475 16.9394 17.1481C17.3796 17.5409 18.5425 18.4672 18.8699 18.8697Z" fill="#4FAE3C"/>
<path d="M7.21051 25.5519H17.3302" stroke="#A2A5A6" stroke-width="6.8028" stroke-miterlimit="22.9256"/>
<path d="M26.6612 5.09244L25.8477 5.06925L25.896 3.37721L24.3097 3.33198L24.2614 5.02402L23.448 5.00083L23.5605 1.05273L24.374 1.07593L24.3284 2.67577L25.9147 2.721L25.9603 1.12116L26.7738 1.14435L26.6612 5.09244Z" fill="#4FAE3C"/>
<path d="M30.9887 4.38357C30.8627 4.79059 30.6338 5.08093 30.3021 5.25457C29.9721 5.42862 29.5816 5.46334 29.1307 5.35871C28.6374 5.24428 28.2874 4.98857 28.0807 4.5916C27.8761 4.19327 27.841 3.70433 27.9754 3.12477L28.03 2.88961C28.1158 2.51968 28.2566 2.20891 28.4524 1.9573C28.6481 1.7057 28.884 1.53302 29.1601 1.43928C29.4383 1.34419 29.7378 1.33383 30.0584 1.40822C30.5023 1.51121 30.8323 1.71308 31.0484 2.01383C31.2645 2.31458 31.3438 2.68477 31.2864 3.1244L30.4937 2.94049C30.5319 2.68761 30.504 2.49179 30.41 2.35302C30.3181 2.2129 30.1507 2.11463 29.9076 2.05823C29.6433 1.99693 29.4231 2.04607 29.2468 2.20567C29.0727 2.36391 28.9377 2.64168 28.8419 3.03898L28.7744 3.32964C28.678 3.74537 28.67 4.06374 28.7505 4.28477C28.8328 4.50621 29.0096 4.6484 29.2809 4.71134C29.5257 4.76815 29.7209 4.75496 29.8665 4.67177C30.0142 4.58723 30.124 4.42986 30.196 4.19966L30.9887 4.38357Z" fill="#4FAE3C"/>
<path d="M20.7656 1.28288L21.5689 1.13665L22.2762 5.0222L21.473 5.16843L21.0032 2.58785L19.9171 5.45167L19.1165 5.59741L18.4092 1.71186L19.2098 1.56612L19.6805 4.15203L20.7656 1.28288Z" fill="#4FAE3C"/>
<path d="M35.2576 3.87163L34.1336 3.42423L32.9168 6.48138L32.1607 6.18044L33.3775 3.12329L32.2685 2.68191L32.5123 2.06947L35.5014 3.25919L35.2576 3.87163Z" fill="#4FAE3C"/>
<path d="M17.071 3.55278C17.0165 3.41295 16.919 3.3248 16.7786 3.28835C16.6375 3.25021 16.4769 3.26631 16.2966 3.33665C16.1349 3.39975 16.0159 3.49278 15.9396 3.61572C15.8643 3.73632 15.8517 3.86064 15.9017 3.98868L15.1435 4.2845C15.066 4.0857 15.0519 3.88542 15.1013 3.68366C15.1517 3.47957 15.2623 3.29277 15.433 3.12328C15.6053 2.95313 15.8137 2.8204 16.058 2.72508C16.4825 2.55942 16.8508 2.52057 17.1627 2.60852C17.4746 2.69647 17.6956 2.90723 17.8258 3.24081C17.8896 3.40424 17.899 3.57526 17.8542 3.75388C17.811 3.93184 17.7149 4.09844 17.5658 4.25367C17.7956 4.24555 17.9927 4.29289 18.157 4.39571C18.3207 4.49684 18.4443 4.65439 18.5278 4.86836C18.6567 5.19857 18.6295 5.51201 18.4463 5.80868C18.2641 6.103 17.9591 6.33365 17.5311 6.50063C17.2633 6.60515 17.0046 6.65366 16.7551 6.64617C16.505 6.637 16.2935 6.57492 16.1205 6.45994C15.9485 6.34262 15.8215 6.17866 15.7393 5.96806L16.5025 5.67027C16.5538 5.80168 16.6541 5.88969 16.8035 5.93428C16.9522 5.97718 17.1159 5.96379 17.2945 5.89411C17.4967 5.81523 17.6381 5.70762 17.7189 5.57128C17.8013 5.43429 17.8152 5.29587 17.7607 5.15604C17.6857 4.96398 17.5799 4.84705 17.4433 4.80525C17.306 4.76177 17.137 4.77914 16.9366 4.85737L16.4842 5.03388L16.2525 4.44L16.72 4.25758C17.0802 4.11119 17.1973 3.87626 17.071 3.55278Z" fill="#4FAE3C"/>
<path d="M35.6406 6.2665L34.9455 7.47203L34.2405 7.06554L36.2134 3.644L37.5482 4.41362C37.8051 4.56176 38.0036 4.73884 38.1436 4.94485C38.2853 5.15176 38.3584 5.37242 38.3631 5.60684C38.3687 5.83969 38.3079 6.06657 38.1805 6.28747C37.9872 6.62273 37.7194 6.82109 37.3771 6.88257C37.0372 6.94339 36.6644 6.85681 36.2587 6.62286L35.6406 6.2665ZM35.9699 5.69546L36.5997 6.05859C36.7861 6.16608 36.9532 6.20397 37.1009 6.17224C37.2502 6.14142 37.3718 6.04454 37.4657 5.88161C37.5624 5.71398 37.5912 5.55001 37.5521 5.3897C37.513 5.2294 37.4074 5.09754 37.2353 4.99414L36.5891 4.62153L35.9699 5.69546Z" fill="#4FAE3C"/>
<path d="M39.5608 8.15253L41.3266 7.21401L41.9904 7.78993L38.8128 9.34575L38.5884 9.43473C38.2006 9.56989 37.8476 9.49942 37.5293 9.22331L37.3213 9.02848L37.7436 8.52939C37.7716 8.56329 37.8225 8.61224 37.8963 8.67623C37.9823 8.75089 38.0643 8.79571 38.1423 8.81069C38.2216 8.82686 38.314 8.81005 38.4194 8.76028L38.6641 8.63141L39.4623 5.59647L40.124 6.17061L39.5608 8.15253Z" fill="#4FAE3C"/>
<path d="M14.1426 5.70125C14.3519 6.02894 14.4774 6.35322 14.5193 6.6741C14.5611 6.99498 14.5166 7.29159 14.3859 7.56392C14.2566 7.83528 14.0525 8.06002 13.7736 8.23813C13.4977 8.4143 13.2092 8.50518 12.9081 8.51079C12.607 8.5164 12.3187 8.43447 12.0431 8.265C11.7666 8.094 11.5253 7.84896 11.3194 7.52986L11.2143 7.36526C11.005 7.03757 10.8798 6.71203 10.8385 6.38865C10.7977 6.06278 10.8425 5.76492 10.9727 5.49509C11.1035 5.22276 11.3076 4.99802 11.585 4.82088C11.8624 4.64374 12.1513 4.55362 12.4519 4.55051C12.753 4.5449 13.042 4.6296 13.319 4.80462C13.5965 4.97714 13.8394 5.22648 14.0477 5.55264L14.1426 5.70125ZM13.3513 5.99418C13.1284 5.64515 12.8965 5.41986 12.6557 5.31829C12.4149 5.21673 12.1787 5.23992 11.947 5.38786C11.7169 5.53483 11.5967 5.73814 11.5866 5.9978C11.5755 6.25593 11.6797 6.55848 11.8991 6.90543L12.0027 7.06775C12.2198 7.40763 12.4506 7.6314 12.6953 7.73906C12.94 7.84672 13.1797 7.82561 13.4145 7.67572C13.6446 7.52875 13.764 7.32593 13.7726 7.06724C13.7802 6.80703 13.6743 6.50345 13.4549 6.1565L13.3513 5.99418Z" fill="#4FAE3C"/>
<path d="M43.4361 9.60715L41.8121 12.176L44.6875 11.1976L45.3485 12.0376L42.2444 14.4801L41.7394 13.8384L42.5879 13.1707L44.1029 12.0822L41.1305 13.0645L40.7849 12.6253L42.4383 9.9711L41.0261 11.1859L40.1776 11.8535L39.6743 11.214L42.7785 8.77142L43.4361 9.60715Z" fill="#4FAE3C"/>
<path d="M9.00054 8.89988L8.59427 7.40389L9.27055 6.75691L9.79339 8.96732L12.0226 9.59036L11.3385 10.2448L9.83318 9.77022L10.2407 11.295L9.55661 11.9495L9.03282 9.69494L6.84771 9.0748L7.52399 8.42781L9.00054 8.89988Z" fill="#4FAE3C"/>
<path d="M6.18273 12.2962L6.55097 11.7791C6.8206 11.4005 7.12617 11.1662 7.4677 11.0764C7.8088 10.984 8.13477 11.0485 8.44562 11.2699C8.75795 11.4923 8.93045 11.7817 8.96312 12.138C8.99538 12.4918 8.88289 12.8524 8.62565 13.2199L7.76484 14.4287L4.54731 12.1374L5.02256 11.47L6.18273 12.2962ZM6.71751 12.677L7.70752 13.382L8.08363 12.8539C8.20428 12.6845 8.25387 12.5166 8.2324 12.3503C8.21198 12.1826 8.12368 12.0431 7.96752 11.9319C7.82167 11.8281 7.67214 11.7948 7.51892 11.8323C7.36528 11.8672 7.22719 11.9676 7.10464 12.1334L6.71751 12.677Z" fill="#4FAE3C"/>
<path d="M45.2576 16.2907L44.5529 14.8962L43.6087 15.3733L44.4357 17.0099L43.8522 17.3047L42.6582 14.9418L46.1832 13.1606L47.3748 15.5186L46.7865 15.8159L45.9619 14.1841L45.1218 14.6087L45.8265 16.0032L45.2576 16.2907Z" fill="#4FAE3C"/>
<path d="M44.8617 20.7255L44.596 19.9563L46.196 19.4037L45.6779 17.9037L44.0779 18.4564L43.8122 17.6872L47.5454 16.3976L47.8111 17.1668L46.2983 17.6894L46.8165 19.1893L48.3292 18.6668L48.595 19.436L44.8617 20.7255Z" fill="#4FAE3C"/>
<path d="M3.74778 13.0596L7.26848 14.8495L6.89844 15.5774L3.96533 14.0862L3.48833 15.0244L4.70171 15.7143C5.10855 15.9516 5.41197 16.1728 5.61198 16.3779C5.81037 16.5823 5.92583 16.7921 5.95835 17.0074C5.98927 17.222 5.93586 17.4667 5.79815 17.7415L5.70225 17.9302L5.1195 17.6339L5.16888 17.5068C5.23731 17.3124 5.19851 17.1293 5.05246 16.9577C4.90563 16.7836 4.59895 16.5648 4.13244 16.3013L2.54791 15.4196L3.74778 13.0596Z" fill="#4FAE3C"/>
<path d="M3.95118 17.8698L3.52744 19.3736L4.54569 19.6605L5.043 17.8956L5.67222 18.0729L4.95422 20.6211L1.15276 19.55L1.86929 17.007L2.50374 17.1857L2.00791 18.9455L2.91388 19.2008L3.33763 17.6969L3.95118 17.8698Z" fill="#4FAE3C"/>
<path d="M48.796 24.2188L48.6474 23.0182L45.382 23.4223L45.2821 22.6147L48.5475 22.2106L48.4009 21.0261L49.055 20.9452L49.4501 24.1379L48.796 24.2188Z" fill="#4FAE3C"/>
<path d="M3.46407 21.0446C3.88204 21.1273 4.19473 21.3245 4.40214 21.6362C4.60977 21.9462 4.68516 22.3309 4.62831 22.7903C4.56614 23.2928 4.34847 23.6676 3.97532 23.9148C3.6006 24.16 3.11802 24.246 2.52759 24.173L2.288 24.1433C1.91112 24.0967 1.58733 23.9892 1.31662 23.8209C1.04591 23.6525 0.849492 23.436 0.727371 23.1713C0.603677 22.9045 0.562038 22.6078 0.602455 22.2812C0.658417 21.8289 0.824636 21.4796 1.10111 21.2332C1.37759 20.9868 1.73744 20.8692 2.18066 20.8803L2.08073 21.6879C1.82524 21.6763 1.63342 21.7246 1.50525 21.8326C1.37552 21.9386 1.29533 22.1155 1.26468 22.3631C1.23137 22.6323 1.3033 22.8462 1.48046 23.0048C1.65606 23.1614 1.94643 23.2665 2.35158 23.3203L2.64769 23.357C3.07123 23.4094 3.38869 23.384 3.60007 23.2808C3.81168 23.1757 3.93458 22.985 3.96878 22.7087C3.99965 22.4592 3.9661 22.2665 3.86814 22.1304C3.76861 21.9924 3.6006 21.8996 3.36414 21.8522L3.46407 21.0446Z" fill="#4FAE3C"/>
<path d="M1.67914 27.1013L4.8609 26.7288L4.94738 27.4676L3.47474 27.64C3.23662 27.6679 3.0624 27.685 2.95217 27.6914L2.95328 27.701C3.06462 27.7597 3.20446 27.8396 3.37289 27.9407L5.12256 28.9643L5.20905 29.703L2.02729 30.0755L1.94087 29.3368L3.55826 29.1474C3.79002 29.1203 3.94187 29.1074 4.01384 29.1088L4.01273 29.0992C3.98786 29.0824 3.92388 29.0442 3.82067 28.9845C3.71738 28.9249 3.63773 28.8787 3.58175 28.8461L1.75937 27.787L1.67914 27.1013ZM2.34266 31.1239L5.42958 30.2679L5.71666 31.3032C5.80414 31.6186 5.79349 31.8805 5.68483 32.0888C5.57618 32.2972 5.41562 32.4308 5.20328 32.4897C5.0815 32.5235 4.95597 32.5255 4.82664 32.4957C4.69731 32.4661 4.5859 32.4037 4.49219 32.3086L4.48287 32.3112C4.48314 32.5061 4.42972 32.6714 4.3227 32.807C4.21569 32.9427 4.07474 33.0347 3.89993 33.0832C3.65006 33.1525 3.40361 33.1157 3.16055 32.9729C2.91752 32.8301 2.74789 32.5854 2.65178 32.2388L2.34266 31.1239ZM3.12217 31.6795L3.20407 31.9746C3.29495 32.3026 3.46219 32.4327 3.70583 32.3652C3.80893 32.3366 3.87814 32.277 3.91358 32.1865C3.94902 32.096 3.94803 31.9836 3.91083 31.8493L3.81083 31.4886L3.12217 31.6795ZM4.39166 31.3275L4.45143 31.543C4.48437 31.6617 4.5403 31.7453 4.61942 31.7941C4.69849 31.8428 4.78333 31.8545 4.87381 31.8294C4.97067 31.8026 5.04101 31.7469 5.0849 31.6625C5.12868 31.578 5.1328 31.4717 5.09731 31.3437L5.04277 31.147L4.39166 31.3275ZM3.19259 33.8618L6.64349 33.6822L6.89599 34.2401L4.51134 36.7759L4.18261 36.0496L4.75171 35.456L4.32277 34.5082L3.50722 34.5571L3.19259 33.8618ZM4.94928 34.4541L5.19981 35.0077L5.54074 34.6881C5.68819 34.5502 5.80819 34.446 5.90092 34.3757L5.89692 34.3668C5.79305 34.3889 5.63208 34.4066 5.41405 34.4199L4.94928 34.4541ZM4.8702 37.4249L7.46608 35.5478L7.90189 36.1505L6.88162 36.8883L7.68773 38.003L8.708 37.2652L9.14384 37.868L6.54789 39.7451L6.11208 39.1424L7.17564 38.3733L6.36955 37.2586L5.30604 38.0276L4.8702 37.4249ZM8.38555 41.8185L10.6064 39.5098L11.3807 40.2546C11.6165 40.4815 11.7407 40.7123 11.7534 40.9469C11.7659 41.1816 11.6958 41.3784 11.5431 41.5372C11.4554 41.6283 11.3484 41.694 11.222 41.7343C11.0956 41.7745 10.9678 41.7776 10.8388 41.7434L10.8321 41.7504C10.9316 41.918 10.9699 42.0875 10.9468 42.2587C10.9237 42.4299 10.8493 42.581 10.7236 42.7117C10.5438 42.8986 10.313 42.9924 10.0311 42.9933C9.74921 42.9942 9.47861 42.8699 9.21935 42.6205L8.38555 41.8185ZM9.33944 41.8997L9.56016 42.112C9.80537 42.3479 10.0156 42.3748 10.1909 42.1926C10.265 42.1155 10.2943 42.029 10.2787 41.9331C10.2631 41.8371 10.205 41.7408 10.1046 41.6442L9.83483 41.3847L9.33944 41.8997ZM10.2528 40.9503L10.4139 41.1053C10.5027 41.1907 10.5934 41.2342 10.6863 41.2358C10.7791 41.2375 10.8581 41.2044 10.9233 41.1367C10.9929 41.0643 11.0251 40.9805 11.0199 40.8856C11.0146 40.7906 10.964 40.697 10.8683 40.6049L10.7211 40.4633L10.2528 40.9503ZM13.276 45.1364C12.8531 45.2242 12.4367 45.1344 12.0268 44.867C11.6171 44.5996 11.3671 44.2547 11.2771 43.8322C11.1871 43.4097 11.2749 42.9949 11.5405 42.5878C11.8061 42.1806 12.1504 41.9333 12.5733 41.8455C12.9962 41.7577 13.4127 41.8475 13.8224 42.1149C14.2324 42.3823 14.4823 42.7272 14.5723 43.1497C14.6623 43.5721 14.5745 43.987 14.3089 44.3941C14.0433 44.8012 13.699 45.0486 13.276 45.1364ZM11.9838 43.7854C12.0176 44.0183 12.1444 44.2065 12.3642 44.3499C12.5841 44.4934 12.8074 44.5336 13.0342 44.4707C13.2609 44.4078 13.4647 44.2379 13.6453 43.9611C13.8259 43.6843 13.8993 43.4293 13.8656 43.1965C13.8318 42.9635 13.705 42.7753 13.4852 42.6319C13.2653 42.4885 13.042 42.4482 12.8152 42.5112C12.5884 42.574 12.3847 42.744 12.2041 43.0208C12.0235 43.2977 11.9501 43.5525 11.9838 43.7854ZM14.2962 46.1765L15.598 43.2494L16.2776 43.5517L15.6751 44.9064C15.5777 45.1255 15.5036 45.2841 15.4529 45.3822L15.4617 45.3861C15.569 45.3203 15.709 45.2408 15.8818 45.1473L17.6545 44.164L18.334 44.4663L17.0323 47.3933L16.3527 47.0911L17.0145 45.6032C17.1093 45.39 17.1756 45.2528 17.2135 45.1915L17.2046 45.1876C17.1776 45.2004 17.1121 45.236 17.0081 45.2944C16.9041 45.3528 16.8238 45.3978 16.7673 45.4293L14.927 46.457L14.2962 46.1765ZM17.7999 43.867C17.5717 43.9534 17.311 43.9315 17.0178 43.8011C16.7247 43.6707 16.5339 43.4919 16.4452 43.2645C16.3566 43.0371 16.3734 42.798 16.4955 42.5473L17.0507 42.7942C17.002 42.9039 16.9909 43.0045 17.0175 43.0961C17.0442 43.1877 17.1167 43.2599 17.2352 43.3125C17.3536 43.3652 17.4558 43.3707 17.5417 43.3291C17.6275 43.2875 17.6949 43.212 17.7436 43.1024L18.2988 43.3493C18.1944 43.608 18.0281 43.7805 17.7999 43.867ZM18.0737 47.7259L18.8051 44.607L19.5293 44.7768L19.2374 46.0215L19.4976 46.0826C19.6175 46.1107 19.7237 46.0874 19.8162 46.0125C19.9087 45.9376 20.0098 45.8148 20.1197 45.6442C20.2296 45.4736 20.3194 45.3532 20.3892 45.283C20.5688 45.0988 20.7911 45.0378 21.0562 45.0999C21.2045 45.1347 21.3231 45.1825 21.412 45.2433L21.2644 45.8728C21.1986 45.8273 21.1293 45.7961 21.0567 45.7791C20.9652 45.7576 20.8861 45.7757 20.8193 45.8333C20.7984 45.8517 20.7117 45.9587 20.5593 46.1543C20.407 46.3499 20.2741 46.4694 20.1607 46.5127L20.1585 46.5221C20.2753 46.606 20.355 46.7346 20.3976 46.9077L20.7525 48.354L19.9148 48.1576L19.7113 47.0664C19.6865 46.9307 19.659 46.8386 19.6289 46.7898C19.5987 46.7412 19.5583 46.7109 19.5079 46.6991L19.1009 46.6036L18.7979 47.8957L18.0737 47.7259ZM21.9634 48.5917C21.8438 48.5826 21.7428 48.5651 21.6602 48.5393L21.7068 47.9286C21.7799 47.9504 21.8536 47.9641 21.9279 47.9698C22.0474 47.9789 22.1407 47.96 22.2076 47.9131C22.2746 47.8662 22.359 47.7719 22.4608 47.6302L21.464 45.2921L22.2832 45.3545L22.8987 46.9371L22.9085 46.9379L23.6646 45.4598L24.4789 45.5219L23.1697 47.7963C22.9934 48.1046 22.8097 48.319 22.6185 48.4393C22.4273 48.5596 22.209 48.6104 21.9634 48.5917Z" fill="#343434"/>
<path d="M26.6524 48.6661L26.2799 45.4844L27.0187 45.3979L27.1911 46.8705C27.2189 47.1087 27.2361 47.2829 27.2424 47.3931L27.2521 47.392C27.3108 47.2806 27.3907 47.1408 27.4918 46.9724L28.5154 45.2227L29.2541 45.1362L29.6266 48.318L28.8879 48.4044L28.6985 46.787C28.6714 46.5552 28.6585 46.4034 28.6599 46.3314L28.6502 46.3326C28.6335 46.3574 28.5953 46.4214 28.5356 46.5246C28.476 46.6279 28.4298 46.7076 28.3972 46.7635L27.338 48.5859L26.6524 48.6661ZM32.2924 47.5313L31.1493 44.5386L33.6878 43.569L34.8309 46.5616L34.1361 46.827L33.2168 44.4203L32.0679 44.8591L32.9872 47.2659L32.2924 47.5313ZM35.4934 46.2399L34.9494 42.8274L35.4775 42.5172L38.2516 44.6201L37.5641 45.0238L36.9135 44.5208L36.0165 45.0476L36.1515 45.8534L35.4934 46.2399ZM35.8964 44.4304L36.4204 44.1226L36.0664 43.8175C35.9137 43.6854 35.7974 43.5771 35.7176 43.4924L35.7092 43.4973C35.7422 43.5983 35.7769 43.7564 35.8131 43.9719L35.8964 44.4304ZM38.8117 44.1388L36.8278 41.6235L37.53 41.0696C37.7667 40.8829 37.9859 40.7658 38.1877 40.7181C38.5867 40.6222 38.9277 40.7535 39.2107 41.1123C39.3391 41.2752 39.4166 41.4586 39.4433 41.6625C39.47 41.8663 39.4189 42.0749 39.2898 42.2881C39.1813 42.4645 39.0215 42.636 38.8103 42.8026L38.7454 42.8537L39.3956 43.6782L38.8117 44.1388ZM38.3751 42.3843L38.4743 42.306C38.5812 42.2218 38.6529 42.1425 38.6893 42.0684C38.7647 41.918 38.7362 41.7589 38.6038 41.5911C38.4873 41.4434 38.3458 41.3818 38.1792 41.4059C38.0899 41.4184 37.9869 41.4709 37.8699 41.5632L37.7821 41.6324L38.3751 42.3843ZM41.6463 41.6525L39.7895 39.8663L39.1391 40.5425L38.6872 40.1077L40.5542 38.1669L40.8747 38.7382L40.3052 39.3303L42.1619 41.1165L41.6463 41.6525ZM43.2891 39.7996L40.6826 37.9373L41.1149 37.3321L42.1394 38.064L42.9391 36.9447L41.9147 36.2128L42.3471 35.6076L44.9536 37.47L44.5212 38.0751L43.4533 37.3121L42.6536 38.4314L43.7215 39.1945L43.2891 39.7996ZM45.4526 36.4992L42.5884 35.0645L43.4506 33.3434L43.9264 33.7937L43.4822 34.6804L44.0603 34.9699L44.5109 34.0702L45.0716 34.3511L44.6209 35.2508L45.225 35.5533L45.7497 34.5059L46.3104 34.7868L45.4526 36.4992ZM46.6883 33.859L43.6479 32.8498L43.9297 32.0009C44.0247 31.7148 44.1433 31.4965 44.2855 31.3456C44.566 31.046 44.923 30.9682 45.3567 31.1121C45.5536 31.1774 45.7192 31.2879 45.8536 31.4435C45.988 31.5991 46.0601 31.8014 46.0696 32.0505C46.076 32.2575 46.0368 32.4886 45.9521 32.7439L45.9261 32.8223L46.9226 33.1531L46.6883 33.859ZM45.3586 32.634L45.3985 32.514C45.4413 32.3848 45.4576 32.2792 45.4472 32.1973C45.4275 32.0302 45.3162 31.9131 45.1132 31.8457C44.9348 31.7865 44.7827 31.8128 44.6568 31.9247C44.5891 31.9842 44.5319 32.0846 44.485 32.2262L44.4498 32.3323L45.3586 32.634ZM47.6238 30.8473L44.4761 30.2518L44.6143 29.521L45.6986 29.7261L45.7203 29.6115C45.789 29.2485 45.9011 28.9695 46.0567 28.7747C46.2851 28.4913 46.5983 28.3874 46.9964 28.4627C47.3147 28.5229 47.548 28.6759 47.6962 28.9215C47.8443 29.1673 47.8741 29.5242 47.7855 29.9923L47.6238 30.8473ZM47.1698 30.0044L47.196 29.8659C47.2351 29.6588 47.2268 29.5023 47.171 29.3961C47.1153 29.29 47.0141 29.223 46.8676 29.1952C46.7084 29.1651 46.5833 29.1992 46.4921 29.2974C46.4097 29.384 46.3502 29.5245 46.3134 29.7187L46.2909 29.8381L47.1698 30.0044ZM48.1027 28.3157L44.955 27.7203L45.0932 26.9895L48.2409 27.585L48.1027 28.3157Z" fill="#A2A5A6"/>
<path d="M26.6524 48.6661L26.2799 45.4844L27.0187 45.3979L27.1911 46.8705C27.2189 47.1087 27.2361 47.2829 27.2424 47.3931L27.2521 47.392C27.3108 47.2806 27.3907 47.1408 27.4918 46.9724L28.5154 45.2227L29.2541 45.1362L29.6266 48.318L28.8879 48.4044L28.6985 46.787C28.6714 46.5552 28.6585 46.4034 28.6599 46.3314L28.6502 46.3326C28.6335 46.3574 28.5953 46.4214 28.5356 46.5246C28.476 46.6279 28.4298 46.7076 28.3972 46.7635L27.338 48.5859L26.6524 48.6661ZM32.2924 47.5313L31.1493 44.5386L33.6878 43.569L34.8309 46.5616L34.1361 46.827L33.2168 44.4203L32.0679 44.8591L32.9872 47.2659L32.2924 47.5313ZM35.4934 46.2399L34.9494 42.8274L35.4775 42.5172L38.2516 44.6201L37.5641 45.0238L36.9135 44.5208L36.0165 45.0476L36.1515 45.8534L35.4934 46.2399ZM35.8964 44.4304L36.4204 44.1226L36.0664 43.8175C35.9137 43.6854 35.7974 43.5771 35.7176 43.4924L35.7092 43.4973C35.7422 43.5983 35.7769 43.7564 35.8131 43.9719L35.8964 44.4304ZM38.8117 44.1388L36.8278 41.6235L37.53 41.0696C37.7667 40.8829 37.9859 40.7658 38.1877 40.7181C38.5867 40.6222 38.9277 40.7535 39.2107 41.1123C39.3391 41.2752 39.4166 41.4586 39.4433 41.6625C39.47 41.8663 39.4189 42.0749 39.2898 42.2881C39.1813 42.4645 39.0215 42.636 38.8103 42.8026L38.7454 42.8537L39.3956 43.6782L38.8117 44.1388ZM38.3751 42.3843L38.4743 42.306C38.5812 42.2218 38.6529 42.1425 38.6893 42.0684C38.7647 41.918 38.7362 41.7589 38.6038 41.5911C38.4873 41.4434 38.3458 41.3818 38.1792 41.4059C38.0899 41.4184 37.9869 41.4709 37.8699 41.5632L37.7821 41.6324L38.3751 42.3843ZM41.6463 41.6525L39.7895 39.8663L39.1391 40.5425L38.6872 40.1077L40.5542 38.1669L40.8747 38.7382L40.3052 39.3303L42.1619 41.1165L41.6463 41.6525ZM43.2891 39.7996L40.6826 37.9373L41.1149 37.3321L42.1394 38.064L42.9391 36.9447L41.9147 36.2128L42.3471 35.6076L44.9536 37.47L44.5212 38.0751L43.4533 37.3121L42.6536 38.4314L43.7215 39.1945L43.2891 39.7996ZM45.4526 36.4992L42.5884 35.0645L43.4506 33.3434L43.9264 33.7937L43.4822 34.6804L44.0603 34.9699L44.5109 34.0702L45.0716 34.3511L44.6209 35.2508L45.225 35.5533L45.7497 34.5059L46.3104 34.7868L45.4526 36.4992ZM46.6883 33.859L43.6479 32.8498L43.9297 32.0009C44.0247 31.7148 44.1433 31.4965 44.2855 31.3456C44.566 31.046 44.923 30.9682 45.3567 31.1121C45.5536 31.1774 45.7192 31.2879 45.8536 31.4435C45.988 31.5991 46.0601 31.8014 46.0696 32.0505C46.076 32.2575 46.0368 32.4886 45.9521 32.7439L45.9261 32.8223L46.9226 33.1531L46.6883 33.859ZM45.3586 32.634L45.3985 32.514C45.4413 32.3848 45.4576 32.2792 45.4472 32.1973C45.4275 32.0302 45.3162 31.9131 45.1132 31.8457C44.9348 31.7865 44.7827 31.8128 44.6568 31.9247C44.5891 31.9842 44.5319 32.0846 44.485 32.2262L44.4498 32.3323L45.3586 32.634ZM47.6238 30.8473L44.4761 30.2518L44.6143 29.521L45.6986 29.7261L45.7203 29.6115C45.789 29.2485 45.9011 28.9695 46.0567 28.7747C46.2851 28.4913 46.5983 28.3874 46.9964 28.4627C47.3147 28.5229 47.548 28.6759 47.6962 28.9215C47.8443 29.1673 47.874 29.5242 47.7855 29.9923L47.6238 30.8473ZM47.1698 30.0044L47.196 29.8659C47.2351 29.6588 47.2268 29.5023 47.171 29.3961C47.1153 29.29 47.0141 29.223 46.8676 29.1952C46.7084 29.1651 46.5833 29.1992 46.4921 29.2974C46.4097 29.384 46.3502 29.5245 46.3134 29.7187L46.2909 29.8381L47.1698 30.0044ZM48.1027 28.3157L44.955 27.7203L45.0932 26.9895L48.2409 27.585L48.1027 28.3157Z" stroke="#A2A5A6" stroke-width="0.566933" stroke-miterlimit="22.9256"/>
</svg>
