<svg width="19" height="25" viewBox="0 0 19 25" fill="none" xmlns="http://www.w3.org/2000/svg">
<path d="M3.43556 0.0976429C1.86817 0.483385 0.642586 1.77733 0.339851 3.35936C0.281257 3.6621 0.271492 5.12694 0.271492 12.5C0.271492 22.1045 0.256843 21.6064 0.559578 22.3926C0.955086 23.4082 1.86817 24.3262 2.89845 24.7266C3.63087 25.0146 3.39161 25.0049 9.62208 24.9902L15.335 24.9756L15.75 24.8389C17.1318 24.375 18.1084 23.3691 18.543 21.9678L18.6553 21.6064L18.6699 12.6709C18.6797 4.63378 18.6748 3.69628 18.6065 3.34471C18.294 1.79198 17.0781 0.493153 15.6035 0.131824C15.1348 0.0146351 14.8418 0.0976429 14.5977 0.419909C14.4463 0.620104 14.3926 0.971668 14.4756 1.23046C14.5586 1.48925 14.7735 1.65526 15.208 1.80663C16.0967 2.11913 16.6729 2.72948 16.8975 3.59862C17.0098 4.02343 17.0098 20.9814 16.8975 21.4062C16.6729 22.2607 16.0381 22.9443 15.2276 23.1933C14.9151 23.291 14.7783 23.291 9.4756 23.291C4.17286 23.291 4.03614 23.291 3.72364 23.1933C2.91798 22.9443 2.27345 22.2558 2.05372 21.4014C1.94141 20.9814 1.94141 4.01854 2.05372 3.59862C2.27345 2.74413 2.91798 2.05565 3.72364 1.80663C4.00684 1.71874 4.17774 1.70897 5.33497 1.70897H6.6338L7.01466 2.0703C7.26856 2.31444 7.45411 2.45116 7.58106 2.48534C7.83985 2.55858 11.1699 2.55858 11.4287 2.48534C11.5703 2.44628 11.7559 2.29979 12.1367 1.93847C12.7813 1.31347 12.8692 1.18163 12.8692 0.825182C12.8692 0.507799 12.752 0.292955 12.4834 0.112291L12.3174 -1.33514e-05L8.06446 0.00486946C4.06544 0.00486946 3.78712 0.0146351 3.43556 0.0976429Z" fill="#6C786A"/>
<path d="M8.19141 20.0732C7.64453 20.3467 7.58594 21.1768 8.09375 21.543C8.25488 21.6553 8.27441 21.6553 9.50488 21.6553H10.7549L10.9355 21.5137C11.1797 21.3281 11.2725 21.0986 11.248 20.752C11.2236 20.415 11.0771 20.1904 10.7988 20.0635C10.623 19.9854 10.4668 19.9707 9.5 19.9707C8.47949 19.9707 8.38672 19.9756 8.19141 20.0732Z" fill="#6C786A"/>
</svg>
