<svg width="30" height="30" viewBox="0 0 30 30" fill="none" xmlns="http://www.w3.org/2000/svg">
<path d="M13.5352 0.041069C10.6934 0.328178 7.98633 1.41216 5.74219 3.1524C5.05664 3.6856 3.89062 4.83404 3.32226 5.53716C1.65234 7.60552 0.585937 10.0196 0.134766 12.7442C-0.0175781 13.67 -0.0175781 16.3301 0.134766 17.2559C0.691406 20.6133 2.15039 23.4493 4.51758 25.752C6.92578 28.0958 9.77929 29.4669 13.1836 29.918C14.2031 30.0469 16.4238 30.0059 17.4375 29.8301C18.9727 29.5665 20.2793 29.1446 21.6504 28.4708C23.1035 27.7559 24.2754 26.9297 25.4824 25.752C27.8203 23.4727 29.2734 20.7012 29.8301 17.4376C30.0059 16.418 30.0469 14.2676 29.918 13.1836C29.3789 8.78326 26.9473 4.86919 23.2324 2.42583C21.3047 1.16021 19.1602 0.375053 16.875 0.087944C16.2129 0.00591278 14.1445 -0.0233841 13.5352 0.041069ZM15.9609 7.26568C16.6758 7.44732 17.1855 7.74615 17.7598 8.32037C18.1641 8.7188 18.3105 8.91216 18.5039 9.31646C18.8613 10.0489 18.9434 10.4356 18.9141 11.2501C18.8789 12.0235 18.7559 12.4571 18.3984 13.0723C17.6016 14.42 16.0605 15.1993 14.5723 15.0059C13.6113 14.8829 12.8906 14.5313 12.2168 13.8575C11.4551 13.0958 11.127 12.3399 11.0859 11.2501C11.0566 10.4356 11.1387 10.043 11.4961 9.31646C11.8125 8.66607 12.5332 7.92779 13.166 7.59966C14.0273 7.15435 15.0469 7.0313 15.9609 7.26568ZM11.3789 15.4044C12.709 16.0489 13.7285 16.3008 15 16.3008C16.2773 16.3008 17.2793 16.0547 18.6094 15.4044C18.9961 15.2169 19.4238 15.0469 19.5527 15.0235C20.0508 14.9473 20.6484 15.293 20.8945 15.8145C21.1289 16.2891 20.9707 16.9512 20.5488 17.3262C20.2559 17.584 19.1426 18.1114 18.2812 18.4044C17.8769 18.5391 17.5371 18.6622 17.5254 18.6739C17.5078 18.6856 17.9648 19.1602 18.5273 19.7344C19.5996 20.8126 19.7988 21.0879 19.8047 21.504C19.8047 22.0196 19.4824 22.5294 19.0137 22.7403C18.7266 22.8751 18.293 22.8809 18 22.7579C17.8594 22.6993 17.291 22.1778 16.3945 21.2813L15 19.8985L13.6113 21.2813C12.709 22.1778 12.1406 22.6993 12 22.7579C11.1562 23.1094 10.1953 22.4356 10.1953 21.504C10.2012 21.0879 10.4004 20.8126 11.4727 19.7344C12.0352 19.1602 12.4922 18.6856 12.4746 18.6739C12.4629 18.6622 12.123 18.5391 11.7187 18.4044C10.8516 18.1055 9.73828 17.5782 9.45117 17.3262C9.1582 17.0684 9 16.7286 9 16.3477C9 15.586 9.65625 14.959 10.3828 15.0294C10.5645 15.0469 10.9102 15.1758 11.3789 15.4044Z" fill="#F1812D"/>
<path d="M14.3613 9.1758C13.7636 9.39259 13.33 9.80861 13.1191 10.3652C12.9433 10.834 12.9785 11.5606 13.207 12C13.7109 12.9844 14.9062 13.377 15.914 12.8906C16.2304 12.7324 16.6113 12.3516 16.8047 11.9824C16.9453 11.7188 16.9629 11.625 16.9629 11.1035C16.9629 10.582 16.9453 10.4824 16.7988 10.1836C16.6113 9.80275 16.3007 9.50392 15.8672 9.28126C15.4746 9.08205 14.7539 9.02931 14.3613 9.1758Z" fill="#F1812D"/>
</svg>
