<svg width="26" height="26" viewBox="0 0 26 26" fill="none" xmlns="http://www.w3.org/2000/svg">
<path d="M0.395776 2.10355C0.126428 2.26846 0 2.51582 0 2.87312C0 3.23041 0.131925 3.47777 0.395776 3.64268C0.560682 3.74162 0.676117 3.75262 1.73152 3.75262C2.36916 3.75262 2.98481 3.7801 3.10024 3.80759C3.36409 3.86805 3.56748 4.01097 3.69391 4.23085C3.75437 4.32979 4.36453 7.28162 5.27701 11.866C6.09605 15.9722 6.79965 19.4517 6.84912 19.5946C6.96455 19.9519 7.29986 20.4522 7.5912 20.705C7.72312 20.8204 8.01996 21.0073 8.24533 21.1173L8.65759 21.3152L15.9135 21.3317C23.0814 21.3426 23.1694 21.3426 23.3508 21.2327C23.6146 21.0678 23.7465 20.8204 23.7465 20.4631C23.7465 20.1059 23.6146 19.8585 23.3508 19.6936C23.1749 19.5836 23.0539 19.5836 16.2983 19.5836C12.3735 19.5836 9.33371 19.5617 9.21278 19.5287C8.94893 19.4682 8.74555 19.3253 8.61912 19.1054C8.56415 19.0175 8.44871 18.5502 8.35527 18.0665C8.26732 17.5883 8.17937 17.1375 8.16288 17.0716L8.13539 16.9451L15.5672 16.9341L23.0045 16.9177L23.4332 16.7143C23.9774 16.4559 24.4227 16.0162 24.6755 15.505C24.8349 15.1861 24.9394 14.7299 25.4286 12.2948C26.0223 9.35394 26.0717 8.94717 25.9398 8.3755C25.7584 7.58395 25.1373 6.88584 24.2962 6.52305C24.0544 6.4241 23.774 6.41861 15.0395 6.39112L6.02459 6.36364L5.76623 5.08836C5.58484 4.17588 5.4639 3.71414 5.33748 3.45029C5.10111 2.94458 4.63937 2.48833 4.08419 2.22448L3.65543 2.0211L2.1163 2.00461C0.654129 1.99361 0.566179 1.99361 0.395776 2.10355ZM23.7465 8.29305C24.0159 8.45245 24.1863 8.7218 24.1863 9.00214C24.1863 9.12857 23.9444 10.4423 23.6421 11.9265C23.0649 14.8123 23.0484 14.8618 22.6856 15.0652C22.5207 15.1532 22.0315 15.1587 15.1439 15.1587H7.78359L7.11847 11.833C6.75018 10.0026 6.43685 8.42497 6.41487 8.32603L6.37639 8.15013L14.968 8.16112C23.5157 8.17761 23.5542 8.17761 23.7465 8.29305Z" fill="#6C786A"/>
<path d="M9.19082 10.8985C8.92697 11.0634 8.79504 11.3108 8.79504 11.6681C8.79504 12.0254 8.92697 12.2728 9.19082 12.4377C9.36672 12.5476 9.48215 12.5476 15.3913 12.5476C21.3005 12.5476 21.4159 12.5476 21.5918 12.4377C21.8556 12.2728 21.9876 12.0254 21.9876 11.6681C21.9876 11.3108 21.8556 11.0634 21.5918 10.8985C21.4159 10.7886 21.3005 10.7886 15.3913 10.7886C9.48215 10.7886 9.36672 10.7886 9.19082 10.8985Z" fill="#6C786A"/>
<path d="M10.0703 22.3321C9.80642 22.497 9.6745 22.7444 9.6745 23.1017C9.6745 23.459 9.80642 23.7063 10.0703 23.8712C10.3176 24.0196 10.7904 24.0196 11.0377 23.8712C11.3016 23.7063 11.4335 23.459 11.4335 23.1017C11.4335 22.7444 11.3016 22.497 11.0377 22.3321C10.7904 22.1837 10.3176 22.1837 10.0703 22.3321Z" fill="#6C786A"/>
<path d="M20.6243 22.3321C20.3604 22.497 20.2285 22.7444 20.2285 23.1017C20.2285 23.6513 20.5583 23.9811 21.108 23.9811C21.6577 23.9811 21.9875 23.6513 21.9875 23.1017C21.9875 22.7444 21.8556 22.497 21.5917 22.3321C21.3444 22.1837 20.8717 22.1837 20.6243 22.3321Z" fill="#6C786A"/>
</svg>
