<svg width="15" height="9" viewBox="0 0 15 9" fill="none" xmlns="http://www.w3.org/2000/svg">
<path d="M7.50003 8.16669C7.25664 8.16716 7.02077 8.0824 6.83337 7.9271L0.583366 2.71877C0.370641 2.54196 0.236865 2.28789 0.21147 2.01244C0.186074 1.737 0.271139 1.46275 0.44795 1.25002C0.624761 1.0373 0.878835 0.903522 1.15428 0.878126C1.42972 0.852731 1.70397 0.937794 1.9167 1.11461L7.50003 5.78127L13.0834 1.28127C13.1899 1.19475 13.3125 1.13013 13.4441 1.09114C13.5757 1.05215 13.7137 1.03955 13.8502 1.05407C13.9867 1.06859 14.119 1.10994 14.2394 1.17575C14.3599 1.24155 14.4662 1.33052 14.5521 1.43752C14.6475 1.54463 14.7198 1.67028 14.7643 1.80661C14.8089 1.94293 14.8249 2.087 14.8112 2.22977C14.7975 2.37255 14.7544 2.51095 14.6848 2.63633C14.6151 2.7617 14.5203 2.87133 14.4063 2.95835L8.15628 7.9896C7.96349 8.12035 7.73243 8.1827 7.50003 8.16669Z" fill="#6C786A"/>
</svg>
